<?xml version="1.0" encoding="UTF-8"?>
<svg id="Layer_1" data-name="Layer 1" xmlns="http://www.w3.org/2000/svg" viewBox="0 0 374.1 107.57">
  <defs>
    <style>
      .cls-1 {
        fill: #231f20;
      }
    </style>
  </defs>
  <path class="cls-1" d="M53.71,0C24.05,0,0,24.08,0,53.78s24.05,53.78,53.71,53.78,53.71-24.08,53.71-53.78S83.38,0,53.71,0Zm-13.5,22.28l8.01,10.8-10.28,13.08L19.42,22.28h20.79Zm47.83,63h-20.79l-13.57-18.96-14.45,18.96H19.38L68.18,22.28h19.87l-24.26,31.53,24.26,31.47Zm75.37-9.04h-11.71l-11.52-25.9-11.49,25.9h-11.71l19.81-44.67h6.76l19.84,44.67Zm52.67,.04h-14.65l-10.48-13.56h-9.58v13.56h-11.71v-26.72l11.71-8.71v12.3h12.77c2.44,0,4.44-.53,5.99-1.59s2.33-2.58,2.33-4.56-.78-3.58-2.33-4.62c-1.55-1.04-3.55-1.57-5.99-1.57h-24.47v-9.53h25.19c5.61,0,10.23,1.45,13.87,4.34,3.63,2.89,5.45,6.69,5.45,11.38,0,2.93-1.03,5.62-3.08,8.06-2.05,2.44-4.74,4.22-8.06,5.34l13.05,15.88Zm52.67-35.43h-46.41v-9.53h46.41v9.53Zm0,35.39h-46.41v-27.81h36.37v9.57h-24.66v8.71h34.71v9.53Zm17.96,0h-11.71V31.33l31.02,27.41v13.32l-19.31-17.1v21.3Zm34.71,0h-11.61c-.06-9.69-.09-24.66-.09-44.92l11.71,8.67v36.24Zm52.67,0h-11.71l-11.52-25.9-11.49,25.9h-11.71l19.81-44.67h6.76l19.84,44.67Z"/>
</svg>